<mxfile host="app.diagrams.net" modified="2023-11-25T15:52:41.981Z" agent="Mozilla/5.0 (Windows NT 10.0; Win64; x64) AppleWebKit/537.36 (KHTML, like Gecko) Chrome/119.0.0.0 Safari/537.36" etag="m-gPAaZCPKxe5r6h5_Rv" version="22.1.4" type="device">
  <diagram id="C5RBs43oDa-KdzZeNtuy" name="Page-1">
    <mxGraphModel dx="1034" dy="456" grid="1" gridSize="10" guides="1" tooltips="1" connect="1" arrows="1" fold="1" page="1" pageScale="1" pageWidth="827" pageHeight="1169" math="0" shadow="0">
      <root>
        <mxCell id="WIyWlLk6GJQsqaUBKTNV-0" />
        <mxCell id="WIyWlLk6GJQsqaUBKTNV-1" parent="WIyWlLk6GJQsqaUBKTNV-0" />
        <mxCell id="NlOjrBGX5ZFsLn95cprb-1" style="edgeStyle=orthogonalEdgeStyle;rounded=0;orthogonalLoop=1;jettySize=auto;html=1;exitX=0.5;exitY=1;exitDx=0;exitDy=0;" edge="1" parent="WIyWlLk6GJQsqaUBKTNV-1">
          <mxGeometry relative="1" as="geometry">
            <mxPoint x="280" y="160" as="sourcePoint" />
            <mxPoint x="280" y="160" as="targetPoint" />
          </mxGeometry>
        </mxCell>
        <mxCell id="NlOjrBGX5ZFsLn95cprb-2" value="ArenaController" style="rounded=0;whiteSpace=wrap;html=1;" vertex="1" parent="WIyWlLk6GJQsqaUBKTNV-1">
          <mxGeometry x="200" y="170" width="160" height="30" as="geometry" />
        </mxCell>
        <mxCell id="NlOjrBGX5ZFsLn95cprb-4" value="CollectableController" style="rounded=0;whiteSpace=wrap;html=1;" vertex="1" parent="WIyWlLk6GJQsqaUBKTNV-1">
          <mxGeometry x="200" y="210" width="160" height="30" as="geometry" />
        </mxCell>
        <mxCell id="NlOjrBGX5ZFsLn95cprb-6" value="GameController" style="rounded=0;whiteSpace=wrap;html=1;" vertex="1" parent="WIyWlLk6GJQsqaUBKTNV-1">
          <mxGeometry x="200" y="250" width="160" height="30" as="geometry" />
        </mxCell>
        <mxCell id="NlOjrBGX5ZFsLn95cprb-7" value="ProjectileController" style="rounded=0;whiteSpace=wrap;html=1;" vertex="1" parent="WIyWlLk6GJQsqaUBKTNV-1">
          <mxGeometry x="200" y="290" width="160" height="30" as="geometry" />
        </mxCell>
        <mxCell id="NlOjrBGX5ZFsLn95cprb-8" value="ShipController" style="rounded=0;whiteSpace=wrap;html=1;" vertex="1" parent="WIyWlLk6GJQsqaUBKTNV-1">
          <mxGeometry x="200" y="330" width="160" height="30" as="geometry" />
        </mxCell>
        <mxCell id="NlOjrBGX5ZFsLn95cprb-9" value="ShipController" style="rounded=0;whiteSpace=wrap;html=1;" vertex="1" parent="WIyWlLk6GJQsqaUBKTNV-1">
          <mxGeometry x="200" y="370" width="160" height="30" as="geometry" />
        </mxCell>
        <mxCell id="NlOjrBGX5ZFsLn95cprb-11" style="edgeStyle=orthogonalEdgeStyle;rounded=0;orthogonalLoop=1;jettySize=auto;html=1;exitX=0.5;exitY=1;exitDx=0;exitDy=0;" edge="1" parent="WIyWlLk6GJQsqaUBKTNV-1" source="NlOjrBGX5ZFsLn95cprb-9" target="NlOjrBGX5ZFsLn95cprb-9">
          <mxGeometry relative="1" as="geometry" />
        </mxCell>
        <mxCell id="NlOjrBGX5ZFsLn95cprb-12" value="SpedUpProjectileController" style="rounded=0;whiteSpace=wrap;html=1;" vertex="1" parent="WIyWlLk6GJQsqaUBKTNV-1">
          <mxGeometry x="200" y="90" width="160" height="30" as="geometry" />
        </mxCell>
        <mxCell id="NlOjrBGX5ZFsLn95cprb-20" value="GameOverController" style="rounded=0;whiteSpace=wrap;html=1;" vertex="1" parent="WIyWlLk6GJQsqaUBKTNV-1">
          <mxGeometry x="400" y="90" width="160" height="30" as="geometry" />
        </mxCell>
        <mxCell id="NlOjrBGX5ZFsLn95cprb-22" value="OnlyTextMenuController" style="rounded=0;whiteSpace=wrap;html=1;" vertex="1" parent="WIyWlLk6GJQsqaUBKTNV-1">
          <mxGeometry x="400" y="130" width="160" height="30" as="geometry" />
        </mxCell>
        <mxCell id="NlOjrBGX5ZFsLn95cprb-24" value="PauseMenuController" style="rounded=0;whiteSpace=wrap;html=1;" vertex="1" parent="WIyWlLk6GJQsqaUBKTNV-1">
          <mxGeometry x="400" y="170" width="160" height="30" as="geometry" />
        </mxCell>
        <mxCell id="NlOjrBGX5ZFsLn95cprb-25" value="StartMenuController" style="rounded=0;whiteSpace=wrap;html=1;" vertex="1" parent="WIyWlLk6GJQsqaUBKTNV-1">
          <mxGeometry x="400" y="210" width="160" height="30" as="geometry" />
        </mxCell>
        <mxCell id="NlOjrBGX5ZFsLn95cprb-26" value="Controller" style="rounded=0;whiteSpace=wrap;html=1;" vertex="1" parent="WIyWlLk6GJQsqaUBKTNV-1">
          <mxGeometry x="400" y="250" width="160" height="30" as="geometry" />
        </mxCell>
        <mxCell id="NlOjrBGX5ZFsLn95cprb-28" value="Arena" style="rounded=0;whiteSpace=wrap;html=1;" vertex="1" parent="WIyWlLk6GJQsqaUBKTNV-1">
          <mxGeometry x="400" y="290" width="160" height="30" as="geometry" />
        </mxCell>
        <mxCell id="NlOjrBGX5ZFsLn95cprb-29" value="ArenaBuilder" style="rounded=0;whiteSpace=wrap;html=1;" vertex="1" parent="WIyWlLk6GJQsqaUBKTNV-1">
          <mxGeometry x="400" y="330" width="160" height="30" as="geometry" />
        </mxCell>
        <mxCell id="NlOjrBGX5ZFsLn95cprb-30" value="ArenaBuilderByRound" style="rounded=0;whiteSpace=wrap;html=1;" vertex="1" parent="WIyWlLk6GJQsqaUBKTNV-1">
          <mxGeometry x="400" y="370" width="160" height="30" as="geometry" />
        </mxCell>
        <mxCell id="NlOjrBGX5ZFsLn95cprb-31" value="ArenaModifier" style="rounded=0;whiteSpace=wrap;html=1;" vertex="1" parent="WIyWlLk6GJQsqaUBKTNV-1">
          <mxGeometry x="600" y="90" width="160" height="30" as="geometry" />
        </mxCell>
        <mxCell id="NlOjrBGX5ZFsLn95cprb-32" value="Element" style="rounded=0;whiteSpace=wrap;html=1;" vertex="1" parent="WIyWlLk6GJQsqaUBKTNV-1">
          <mxGeometry x="600" y="130" width="160" height="30" as="geometry" />
        </mxCell>
        <mxCell id="NlOjrBGX5ZFsLn95cprb-33" value="Collectable" style="rounded=0;whiteSpace=wrap;html=1;" vertex="1" parent="WIyWlLk6GJQsqaUBKTNV-1">
          <mxGeometry x="600" y="170" width="160" height="30" as="geometry" />
        </mxCell>
        <mxCell id="NlOjrBGX5ZFsLn95cprb-34" value="CollectableFactory" style="rounded=0;whiteSpace=wrap;html=1;" vertex="1" parent="WIyWlLk6GJQsqaUBKTNV-1">
          <mxGeometry x="600" y="210" width="160" height="30" as="geometry" />
        </mxCell>
        <mxCell id="NlOjrBGX5ZFsLn95cprb-35" value="CollectableWithMultiplier" style="rounded=0;whiteSpace=wrap;html=1;" vertex="1" parent="WIyWlLk6GJQsqaUBKTNV-1">
          <mxGeometry x="600" y="250" width="160" height="30" as="geometry" />
        </mxCell>
        <mxCell id="NlOjrBGX5ZFsLn95cprb-36" value="DamageCollectable" style="rounded=0;whiteSpace=wrap;html=1;" vertex="1" parent="WIyWlLk6GJQsqaUBKTNV-1">
          <mxGeometry x="600" y="290" width="160" height="30" as="geometry" />
        </mxCell>
        <mxCell id="NlOjrBGX5ZFsLn95cprb-37" value="HealthColletable" style="rounded=0;whiteSpace=wrap;html=1;" vertex="1" parent="WIyWlLk6GJQsqaUBKTNV-1">
          <mxGeometry x="600" y="330" width="160" height="30" as="geometry" />
        </mxCell>
        <mxCell id="NlOjrBGX5ZFsLn95cprb-38" value="ScoreColletable" style="rounded=0;whiteSpace=wrap;html=1;" vertex="1" parent="WIyWlLk6GJQsqaUBKTNV-1">
          <mxGeometry x="600" y="370" width="160" height="30" as="geometry" />
        </mxCell>
        <mxCell id="NlOjrBGX5ZFsLn95cprb-39" value="SpedUpProjectileCollectablle" style="rounded=0;whiteSpace=wrap;html=1;" vertex="1" parent="WIyWlLk6GJQsqaUBKTNV-1">
          <mxGeometry x="200" y="50" width="160" height="30" as="geometry" />
        </mxCell>
        <mxCell id="NlOjrBGX5ZFsLn95cprb-41" value="GameOverController" style="rounded=0;whiteSpace=wrap;html=1;" vertex="1" parent="WIyWlLk6GJQsqaUBKTNV-1">
          <mxGeometry x="200" y="410" width="160" height="30" as="geometry" />
        </mxCell>
        <mxCell id="NlOjrBGX5ZFsLn95cprb-42" value="OnlyTextMenuController" style="rounded=0;whiteSpace=wrap;html=1;" vertex="1" parent="WIyWlLk6GJQsqaUBKTNV-1">
          <mxGeometry x="400" y="410" width="160" height="30" as="geometry" />
        </mxCell>
        <mxCell id="NlOjrBGX5ZFsLn95cprb-43" value="PauseMenuController" style="rounded=0;whiteSpace=wrap;html=1;" vertex="1" parent="WIyWlLk6GJQsqaUBKTNV-1">
          <mxGeometry x="600" y="410" width="160" height="30" as="geometry" />
        </mxCell>
        <mxCell id="NlOjrBGX5ZFsLn95cprb-44" value="StartMenuController" style="rounded=0;whiteSpace=wrap;html=1;" vertex="1" parent="WIyWlLk6GJQsqaUBKTNV-1">
          <mxGeometry x="200" y="450" width="160" height="30" as="geometry" />
        </mxCell>
        <mxCell id="NlOjrBGX5ZFsLn95cprb-45" value="Game" style="rounded=0;whiteSpace=wrap;html=1;" vertex="1" parent="WIyWlLk6GJQsqaUBKTNV-1">
          <mxGeometry x="400" y="450" width="160" height="30" as="geometry" />
        </mxCell>
        <mxCell id="NlOjrBGX5ZFsLn95cprb-46" value="&lt;div style=&quot;border-color: rgb(218, 220, 224); border-bottom-width: 1px; border-bottom-style: solid; color: rgb(97, 97, 97); font-family: -apple-system, BlinkMacSystemFont, &amp;quot;Segoe UI Variable&amp;quot;, &amp;quot;Segoe UI&amp;quot;, system-ui, ui-sans-serif, Helvetica, Arial, sans-serif, &amp;quot;Apple Color Emoji&amp;quot;, &amp;quot;Segoe UI Emoji&amp;quot;; font-size: 12px; font-style: normal; font-variant-ligatures: normal; font-variant-caps: normal; font-weight: 400; letter-spacing: normal; orphans: 2; text-align: left; text-indent: 0px; text-transform: none; widows: 2; word-spacing: 0px; -webkit-text-stroke-width: 0px; white-space: nowrap; background-color: rgb(241, 243, 244); text-decoration-thickness: initial; text-decoration-style: initial; text-decoration-color: initial; padding: 12px 0px 8px 14px;&quot; class=&quot;geFormatSection&quot;&gt;&lt;div style=&quot;border-color: var(--border-color); display: inline-flex; align-items: center; padding: 3px 0px; height: 18px; width: 100px; max-width: 100px; margin-right: 4px;&quot;&gt;&lt;br class=&quot;Apple-interchange-newline&quot;&gt;&lt;input style=&quot;border: 1px solid rgb(216, 216, 216); font-size: inherit; border-radius: 4px; margin: 1px 6px 0px 0px; vertical-align: top;&quot; type=&quot;checkbox&quot;&gt;&lt;div style=&quot;border-color: var(--border-color); display: inline-block; white-space: nowrap; text-overflow: ellipsis; overflow: hidden; max-width: 160px; user-select: none;&quot;&gt;Sombra&lt;/div&gt;&lt;/div&gt;&lt;div style=&quot;border-color: var(--border-color); display: inline-flex; align-items: center; padding: 3px 0px; height: 18px; width: 104px; max-width: 104px;&quot;&gt;&lt;input style=&quot;border: 1px solid rgb(216, 216, 216); font-size: inherit; border-radius: 4px; margin: 1px 6px 0px 0px; vertical-align: top;&quot; type=&quot;checkbox&quot;&gt;&lt;div style=&quot;border-color: var(--border-color); display: inline-block; white-space: nowrap; text-overflow: ellipsis; overflow: hidden; max-width: 160px; user-select: none;&quot;&gt;Sketch&lt;/div&gt;&lt;/div&gt;&lt;/div&gt;&lt;div style=&quot;border-color: rgb(218, 220, 224); border-bottom-width: 1px; border-bottom-style: solid; color: rgb(97, 97, 97); font-family: -apple-system, BlinkMacSystemFont, &amp;quot;Segoe UI Variable&amp;quot;, &amp;quot;Segoe UI&amp;quot;, system-ui, ui-sans-serif, Helvetica, Arial, sans-serif, &amp;quot;Apple Color Emoji&amp;quot;, &amp;quot;Segoe UI Emoji&amp;quot;; font-size: 12px; font-style: normal; font-variant-ligatures: normal; font-variant-caps: normal; font-weight: 400; letter-spacing: normal; orphans: 2; text-align: left; text-indent: 0px; text-transform: none; widows: 2; word-spacing: 0px; -webkit-text-stroke-width: 0px; white-space: nowrap; background-color: rgb(241, 243, 244); text-decoration-thickness: initial; text-decoration-style: initial; text-decoration-color: initial; padding: 12px 0px 8px 14px;&quot; class=&quot;geFormatSection&quot;&gt;&lt;br class=&quot;Apple-interchange-newline&quot;&gt;&lt;/div&gt;" style="text;whiteSpace=wrap;html=1;" vertex="1" parent="WIyWlLk6GJQsqaUBKTNV-1">
          <mxGeometry x="1290" y="240" width="260" height="110" as="geometry" />
        </mxCell>
        <mxCell id="NlOjrBGX5ZFsLn95cprb-47" value="State" style="rounded=0;whiteSpace=wrap;html=1;" vertex="1" parent="WIyWlLk6GJQsqaUBKTNV-1">
          <mxGeometry x="600" y="450" width="160" height="30" as="geometry" />
        </mxCell>
        <mxCell id="NlOjrBGX5ZFsLn95cprb-48" value="Leaderboard" style="rounded=0;whiteSpace=wrap;html=1;" vertex="1" parent="WIyWlLk6GJQsqaUBKTNV-1">
          <mxGeometry x="400" y="50" width="160" height="30" as="geometry" />
        </mxCell>
        <mxCell id="NlOjrBGX5ZFsLn95cprb-49" value="AlienController" style="rounded=0;whiteSpace=wrap;html=1;" vertex="1" parent="WIyWlLk6GJQsqaUBKTNV-1">
          <mxGeometry x="200" y="130" width="160" height="30" as="geometry" />
        </mxCell>
        <mxCell id="NlOjrBGX5ZFsLn95cprb-50" value="GameStates" style="rounded=0;whiteSpace=wrap;html=1;" vertex="1" parent="WIyWlLk6GJQsqaUBKTNV-1">
          <mxGeometry x="600" y="50" width="160" height="30" as="geometry" />
        </mxCell>
        <mxCell id="NlOjrBGX5ZFsLn95cprb-51" value="AlienViewer" style="rounded=0;whiteSpace=wrap;html=1;" vertex="1" parent="WIyWlLk6GJQsqaUBKTNV-1">
          <mxGeometry x="200" y="490" width="160" height="30" as="geometry" />
        </mxCell>
        <mxCell id="NlOjrBGX5ZFsLn95cprb-52" value="CoverWallViewer" style="rounded=0;whiteSpace=wrap;html=1;" vertex="1" parent="WIyWlLk6GJQsqaUBKTNV-1">
          <mxGeometry x="400" y="490" width="160" height="30" as="geometry" />
        </mxCell>
        <mxCell id="NlOjrBGX5ZFsLn95cprb-53" value="ElementViewer" style="rounded=0;whiteSpace=wrap;html=1;" vertex="1" parent="WIyWlLk6GJQsqaUBKTNV-1">
          <mxGeometry x="600" y="490" width="160" height="30" as="geometry" />
        </mxCell>
        <mxCell id="NlOjrBGX5ZFsLn95cprb-54" value="ProjectileViewer" style="rounded=0;whiteSpace=wrap;html=1;" vertex="1" parent="WIyWlLk6GJQsqaUBKTNV-1">
          <mxGeometry x="200" y="530" width="160" height="30" as="geometry" />
        </mxCell>
        <mxCell id="NlOjrBGX5ZFsLn95cprb-55" value="ShipViewer" style="rounded=0;whiteSpace=wrap;html=1;" vertex="1" parent="WIyWlLk6GJQsqaUBKTNV-1">
          <mxGeometry x="400" y="530" width="160" height="30" as="geometry" />
        </mxCell>
        <mxCell id="NlOjrBGX5ZFsLn95cprb-56" value="WallViewer" style="rounded=0;whiteSpace=wrap;html=1;" vertex="1" parent="WIyWlLk6GJQsqaUBKTNV-1">
          <mxGeometry x="600" y="530" width="160" height="30" as="geometry" />
        </mxCell>
        <mxCell id="NlOjrBGX5ZFsLn95cprb-57" value="CollectableViewer" style="rounded=0;whiteSpace=wrap;html=1;" vertex="1" parent="WIyWlLk6GJQsqaUBKTNV-1">
          <mxGeometry x="200" y="570" width="160" height="30" as="geometry" />
        </mxCell>
        <mxCell id="NlOjrBGX5ZFsLn95cprb-58" value="CollectableViewerInterface" style="rounded=0;whiteSpace=wrap;html=1;" vertex="1" parent="WIyWlLk6GJQsqaUBKTNV-1">
          <mxGeometry x="400" y="570" width="160" height="30" as="geometry" />
        </mxCell>
        <mxCell id="NlOjrBGX5ZFsLn95cprb-59" value="GameViewer" style="rounded=0;whiteSpace=wrap;html=1;" vertex="1" parent="WIyWlLk6GJQsqaUBKTNV-1">
          <mxGeometry x="600" y="570" width="160" height="30" as="geometry" />
        </mxCell>
        <mxCell id="NlOjrBGX5ZFsLn95cprb-60" value="Viewer" style="rounded=0;whiteSpace=wrap;html=1;" vertex="1" parent="WIyWlLk6GJQsqaUBKTNV-1">
          <mxGeometry x="200" y="610" width="160" height="30" as="geometry" />
        </mxCell>
        <mxCell id="NlOjrBGX5ZFsLn95cprb-61" value="GUI" style="rounded=0;whiteSpace=wrap;html=1;" vertex="1" parent="WIyWlLk6GJQsqaUBKTNV-1">
          <mxGeometry x="400" y="610" width="160" height="30" as="geometry" />
        </mxCell>
        <mxCell id="NlOjrBGX5ZFsLn95cprb-62" value="GUILanterna" style="rounded=0;whiteSpace=wrap;html=1;" vertex="1" parent="WIyWlLk6GJQsqaUBKTNV-1">
          <mxGeometry x="600" y="610" width="160" height="30" as="geometry" />
        </mxCell>
      </root>
    </mxGraphModel>
  </diagram>
</mxfile>
